<svg xmlns="http://www.w3.org/2000/svg" xmlns:lucid="lucid" width="840" height="840"><g lucid:page-tab-id="0_0"><path d="M814.03 400.6a.3.3 0 0 0-.03-.6H26a.3.3 0 0 0-.03.6l388.06 38.8a60 60 0 0 0 11.94 0z" stroke="#000" stroke-opacity="0" stroke-width="3" fill="#ffe342"/><path d="M400.6 25.97a.3.3 0 0 0-.6.03v788a.3.3 0 0 0 .6.03l38.8-388.06a60 60 0 0 0 0-11.94z" stroke="#000" stroke-opacity="0" stroke-width="3" fill="#ffe342"/><path d="M47 291.48a.3.3 0 0 0-.18.57l731.5 293.04a.3.3 0 0 0 .24-.56L432.76 404.2a60 60 0 0 0-11.1-4.43z" stroke="#000" stroke-opacity="0" stroke-width="3" fill="#ffe342"/><path d="M127.66 155.1a.3.3 0 0 0-.4.44l557.2 557.2a.3.3 0 0 0 .44-.4L437.94 410.5a60 60 0 0 0-8.44-8.44z" stroke="#000" stroke-opacity="0" stroke-width="3" fill="#ffe342"/><path d="M246.55 65.67a.3.3 0 0 0-.54.26l311.24 723.94a.3.3 0 0 0 .56-.2L440.18 417.8a60 60 0 0 0-4.7-10.97z" stroke="#000" stroke-opacity="0" stroke-width="3" fill="#ffe342"/><path d="M684.9 127.66a.3.3 0 0 0-.44-.4l-557.2 557.2a.3.3 0 0 0 .4.44L429.5 437.94a60 60 0 0 0 8.44-8.44z" stroke="#000" stroke-opacity="0" stroke-width="3" fill="#ffe342"/><path d="M773.78 245.43a.3.3 0 0 0-.26-.53L50.57 558.4a.3.3 0 0 0 .2.56l371.47-118.78a60 60 0 0 0 10.96-4.75z" stroke="#000" stroke-opacity="0" stroke-width="3" fill="#ffe342"/><path d="M548.13 46.88a.3.3 0 0 0-.57-.2L255.3 778.5a.3.3 0 0 0 .53.25l179.97-346a60 60 0 0 0 4.43-11.08z" stroke="#000" stroke-opacity="0" stroke-width="3" fill="#ffe342"/></g></svg>